# File created by Blade
# Date/Time:  Wed Sep 24 19:42:34 2014
# Frame Rate: 120.000 fps
#------------------------------------------------------
:FULLY-SPECIFIED
:DEGREES
2612
root -4.782878 33.073690 -3.625401 7.479613 -4.970644 -2.898343
Spine -12.939857 10.319538 -9.754200
Head 16.420762 -16.728164 14.781471
LeftShoulder -16.371809 26.772981 8.402455
LeftArm 21.294338 18.832389 -58.740140
LeftForeArm 4.464210 -0.000000 34.226686
LeftHand -25.438126 -0.000000 -6.267866
LeftHandThumb1 -26.253704 0.000000 33.147579
RightShoulder 339.425232 10.165148 313.467824
RightArm 56.025855 32.882135 15.870605
RightForeArm -25.726920 -0.000000 81.338418
RightHand -8.610620 -0.000000 46.547030
RightHandThumb1 -24.326973 -0.000000 -32.862282
LeftUpLeg -1.005913 8.423786 6.282348
LeftLeg -1.338712 -0.000000 0.000000
LeftFoot -9.711108 7.708803 -20.260792
LeftToeBase 10.547994 -0.000000 -0.000000
RightUpLeg -5.373494 -4.440307 0.718882
RightLeg 2.522772 -0.000000 -0.000000
RightFoot -5.758513 -1.142870 -15.999341
RightToeBase -0.129675 -0.000000 0.000000
2613
root -4.785515 33.074064 -3.631458 7.506938 -5.063328 -2.904697
Spine -12.918225 10.284745 -9.760127
Head 16.441436 -16.700591 14.891064
LeftShoulder -16.389975 26.770277 8.448727
LeftArm 21.206516 18.665488 -58.749125
LeftForeArm 4.401234 -0.000000 34.088509
LeftHand -25.441550 -0.000000 -6.327097
LeftHandThumb1 -26.253704 0.000000 33.147579
RightShoulder 339.368507 10.296382 313.306445
RightArm 55.928157 32.898159 15.978250
RightForeArm -26.074725 -0.000000 81.405405
RightHand -8.601412 0.000000 46.735206
RightHandThumb1 -24.326973 -0.000000 -32.862282
LeftUpLeg -1.020880 8.515651 6.280082
LeftLeg -1.346456 -0.000000 0.000000
LeftFoot -9.699654 7.718183 -20.220855
LeftToeBase 10.464800 -0.000000 -0.000000
RightUpLeg -5.415747 -4.382925 0.725287
RightLeg 2.516481 -0.000000 -0.000000
RightFoot -5.753729 -1.116719 -16.030430
RightToeBase -0.101085 -0.000000 0.000000
2614
root -4.788544 33.074031 -3.633586 7.517002 -5.130511 -2.921611
Spine -12.887110 10.245590 -9.745364
Head 16.472520 -16.697761 14.982907
LeftShoulder -16.422769 26.825184 8.458255
LeftArm 21.185104 18.506886 -58.712226
LeftForeArm 4.270407 -0.000000 33.956892
LeftHand -25.526773 -0.000000 -6.201506
LeftHandThumb1 -26.253704 0.000000 33.147579
RightShoulder 339.351459 10.388072 313.203745
RightArm 55.798850 32.939810 15.991353
RightForeArm -26.369327 -0.000000 81.450248
RightHand -8.614498 -0.000000 46.785204
RightHandThumb1 -24.326973 -0.000000 -32.862282
LeftUpLeg -1.012062 8.551246 6.294108
LeftLeg -1.358998 -0.000000 0.000000
LeftFoot -9.715132 7.749062 -20.258670
LeftToeBase 10.496121 -0.000000 -0.000000
RightUpLeg -5.431334 -4.364540 0.744434
RightLeg 2.508872 -0.000000 -0.000000
RightFoot -5.750077 -1.066903 -16.027342
RightToeBase -0.113186 -0.000000 0.000000
2615
root -4.791602 33.074010 -3.639411 7.542534 -5.213189 -2.933943
Spine -12.866068 10.232404 -9.755904
Head 16.452507 -16.699933 15.087910
LeftShoulder -16.448851 26.834474 8.487774
LeftArm 21.146753 18.378603 -58.673203
LeftForeArm 4.162922 -0.000000 33.831341
LeftHand -25.548907 0.000000 -6.280983
LeftHandThumb1 -26.253704 0.000000 33.147579
RightShoulder 339.322484 10.459929 313.141435
RightArm 55.663651 32.985225 15.982871
RightForeArm -26.650446 -0.000000 81.507716
RightHand -8.571265 -0.000000 46.876022
RightHandThumb1 -24.326973 -0.000000 -32.862282
LeftUpLeg -1.027913 8.630554 6.300225
LeftLeg -1.360957 -0.000000 0.000000
LeftFoot -9.715016 7.749468 -20.249771
LeftToeBase 10.503172 -0.000000 -0.000000
RightUpLeg -5.471505 -4.305591 0.755460
RightLeg 2.506925 -0.000000 -0.000000
RightFoot -5.734495 -1.023420 -16.017565
RightToeBase -0.133575 -0.000000 0.000000
2616
root -4.796097 33.073910 -3.643176 7.553749 -5.276822 -2.947813
Spine -12.839516 10.200560 -9.769089
Head 16.443317 -16.672705 15.192864
LeftShoulder -16.437375 26.849242 8.533342
LeftArm 21.053693 18.188676 -58.687348
LeftForeArm 4.097817 -0.000000 33.730465
LeftHand -25.586479 0.000000 -6.256957
LeftHandThumb1 -26.253704 0.000000 33.147579
RightShoulder 339.313239 10.533482 313.093309
RightArm 55.486738 32.989817 15.922104
RightForeArm -26.956460 0.000000 81.581642
RightHand -8.558439 -0.000000 46.981862
RightHandThumb1 -24.326973 -0.000000 -32.862282
LeftUpLeg -1.029164 8.632525 6.313560
LeftLeg -1.362280 -0.000000 0.000000
LeftFoot -9.752419 7.821974 -20.250472
LeftToeBase 10.520387 -0.000000 -0.000000
RightUpLeg -5.497926 -4.261488 0.773316
RightLeg 2.515801 -0.000000 -0.000000
RightFoot -5.738362 -1.012420 -16.042331
RightToeBase -0.114755 -0.000000 0.000000
